<?xml version="1.0" encoding="UTF-8"?><svg xmlns="http://www.w3.org/2000/svg" xmlns:xlink="http://www.w3.org/1999/xlink" stroke-dasharray="none" shape-rendering="auto" font-family="'Dialog'" width="2026" text-rendering="auto" fill-opacity="1" contentScriptType="text/ecmascript" color-interpolation="auto" color-rendering="auto" preserveAspectRatio="xMidYMid meet" font-size="12px" fill="black" stroke="black" image-rendering="auto" stroke-miterlimit="10" zoomAndPan="magnify" version="1.0" stroke-linecap="square" stroke-linejoin="miter" contentStyleType="text/css" font-style="normal" height="927" stroke-width="1" stroke-dashoffset="0" font-weight="normal" stroke-opacity="1">
    <!--Generated by the Batik Graphics2D SVG Generator-->
    <defs id="genericDefs"/>
    <g>
        <defs id="defs1">
            <clipPath clipPathUnits="userSpaceOnUse" id="clipPath1">
                <path d="M61 38 L1965 38 L1965 905 L61 905 L61 38 Z"/>
            </clipPath>
            <clipPath clipPathUnits="userSpaceOnUse" id="clipPath2">
                <path d="M-1 -1 L2027 -1 L2027 928 L-1 928 L-1 -1 Z"/>
            </clipPath>
            <clipPath clipPathUnits="userSpaceOnUse" id="clipPath3">
                <path d="M1699 43 L1961 43 L1961 69 L1699 69 L1699 43 Z"/>
            </clipPath>
        </defs>
        <g font-size="14px" fill="white" text-rendering="optimizeLegibility" font-family="'Ubuntu'" stroke-linejoin="round" stroke="white" stroke-width="0" stroke-miterlimit="0">
            <rect x="62" width="1902" height="865" y="39" clip-path="url(#clipPath1)" stroke="none"/>
        </g>
        <g stroke-linecap="butt" font-size="14px" fill="rgb(204,204,204)" text-rendering="optimizeLegibility" font-family="'Ubuntu'" stroke-dasharray="3,3" stroke="rgb(204,204,204)">
            <line y2="904" fill="none" x1="62" clip-path="url(#clipPath1)" x2="1964" y1="904"/>
            <line y2="839" fill="none" x1="62" clip-path="url(#clipPath1)" x2="1964" y1="839"/>
            <line y2="774" fill="none" x1="62" clip-path="url(#clipPath1)" x2="1964" y1="774"/>
            <line y2="709" fill="none" x1="62" clip-path="url(#clipPath1)" x2="1964" y1="709"/>
            <line y2="644" fill="none" x1="62" clip-path="url(#clipPath1)" x2="1964" y1="644"/>
            <line y2="579" fill="none" x1="62" clip-path="url(#clipPath1)" x2="1964" y1="579"/>
            <line y2="514" fill="none" x1="62" clip-path="url(#clipPath1)" x2="1964" y1="514"/>
            <line y2="449" fill="none" x1="62" clip-path="url(#clipPath1)" x2="1964" y1="449"/>
            <line y2="384" fill="none" x1="62" clip-path="url(#clipPath1)" x2="1964" y1="384"/>
            <line y2="320" fill="none" x1="62" clip-path="url(#clipPath1)" x2="1964" y1="320"/>
            <line y2="255" fill="none" x1="62" clip-path="url(#clipPath1)" x2="1964" y1="255"/>
            <line y2="190" fill="none" x1="62" clip-path="url(#clipPath1)" x2="1964" y1="190"/>
            <line y2="125" fill="none" x1="62" clip-path="url(#clipPath1)" x2="1964" y1="125"/>
            <line y2="60" fill="none" x1="62" clip-path="url(#clipPath1)" x2="1964" y1="60"/>
            <line clip-path="url(#clipPath1)" fill="none" x1="220" x2="1012" y1="904" y2="904" stroke-dasharray="none" stroke="black"/>
            <rect x="1012" y="255" clip-path="url(#clipPath1)" fill="rgb(31,119,180)" width="793" stroke-dasharray="none" height="649" stroke="none"/>
            <rect x="1012" y="255" clip-path="url(#clipPath1)" fill="none" width="793" stroke-dasharray="none" height="649" stroke="black"/>
            <rect x="62" y="39" clip-path="url(#clipPath2)" fill="none" width="1902" stroke-dasharray="none" height="865" stroke="black"/>
        </g>
        <g stroke-linecap="butt" font-size="13px" text-rendering="optimizeLegibility">
            <text x="869" xml:space="preserve" y="13" clip-path="url(#clipPath2)" stroke="none">interarrival times for channel 2 in SourceSink.sink</text>
            <rect x="1700" y="44" clip-path="url(#clipPath3)" fill="white" width="259" opacity="0.753" height="23" stroke="none"/>
            <polygon fill="rgb(31,119,180)" clip-path="url(#clipPath3)" points=" 1709 51 1709 59 1717 59 1717 51" stroke="none"/>
            <text x="1722" xml:space="preserve" font-size="10px" y="59" clip-path="url(#clipPath3)" stroke="none">interarrival times for channel 2 in SourceSink.sink</text>
            <line y2="37" fill="none" x1="62" clip-path="url(#clipPath2)" x2="1964" y1="37"/>
            <line y2="906" fill="none" x1="62" clip-path="url(#clipPath2)" x2="1964" y1="906"/>
            <line y2="37" fill="none" x1="62" clip-path="url(#clipPath2)" x2="62" y1="33"/>
            <line y2="906" fill="none" x1="62" clip-path="url(#clipPath2)" x2="62" y1="910"/>
            <text x="53" xml:space="preserve" font-size="10px" y="30" clip-path="url(#clipPath2)" stroke="none">-0,2</text>
            <text x="53" xml:space="preserve" font-size="10px" y="921" clip-path="url(#clipPath2)" stroke="none">-0,2</text>
            <line y2="37" fill="none" x1="77" clip-path="url(#clipPath2)" x2="77" y1="35"/>
            <line y2="906" fill="none" x1="77" clip-path="url(#clipPath2)" x2="77" y1="908"/>
            <line y2="37" fill="none" x1="93" clip-path="url(#clipPath2)" x2="93" y1="35"/>
            <line y2="906" fill="none" x1="93" clip-path="url(#clipPath2)" x2="93" y1="908"/>
            <line y2="37" fill="none" x1="109" clip-path="url(#clipPath2)" x2="109" y1="35"/>
            <line y2="906" fill="none" x1="109" clip-path="url(#clipPath2)" x2="109" y1="908"/>
            <line y2="37" fill="none" x1="125" clip-path="url(#clipPath2)" x2="125" y1="35"/>
            <line y2="906" fill="none" x1="125" clip-path="url(#clipPath2)" x2="125" y1="908"/>
            <line y2="37" fill="none" x1="141" clip-path="url(#clipPath2)" x2="141" y1="33"/>
            <line y2="906" fill="none" x1="141" clip-path="url(#clipPath2)" x2="141" y1="910"/>
            <text x="132" xml:space="preserve" font-size="10px" y="30" clip-path="url(#clipPath2)" stroke="none">-0,1</text>
            <text x="132" xml:space="preserve" font-size="10px" y="921" clip-path="url(#clipPath2)" stroke="none">-0,1</text>
            <line y2="37" fill="none" x1="157" clip-path="url(#clipPath2)" x2="157" y1="35"/>
            <line y2="906" fill="none" x1="157" clip-path="url(#clipPath2)" x2="157" y1="908"/>
            <line y2="37" fill="none" x1="172" clip-path="url(#clipPath2)" x2="172" y1="35"/>
            <line y2="906" fill="none" x1="172" clip-path="url(#clipPath2)" x2="172" y1="908"/>
            <line y2="37" fill="none" x1="188" clip-path="url(#clipPath2)" x2="188" y1="35"/>
            <line y2="906" fill="none" x1="188" clip-path="url(#clipPath2)" x2="188" y1="908"/>
            <line y2="37" fill="none" x1="204" clip-path="url(#clipPath2)" x2="204" y1="35"/>
            <line y2="906" fill="none" x1="204" clip-path="url(#clipPath2)" x2="204" y1="908"/>
            <line y2="37" fill="none" x1="220" clip-path="url(#clipPath2)" x2="220" y1="33"/>
            <line y2="906" fill="none" x1="220" clip-path="url(#clipPath2)" x2="220" y1="910"/>
            <text x="218" xml:space="preserve" font-size="10px" y="30" clip-path="url(#clipPath2)" stroke="none">0</text>
            <text x="218" xml:space="preserve" font-size="10px" y="921" clip-path="url(#clipPath2)" stroke="none">0</text>
            <line y2="37" fill="none" x1="236" clip-path="url(#clipPath2)" x2="236" y1="35"/>
            <line y2="906" fill="none" x1="236" clip-path="url(#clipPath2)" x2="236" y1="908"/>
            <line y2="37" fill="none" x1="252" clip-path="url(#clipPath2)" x2="252" y1="35"/>
            <line y2="906" fill="none" x1="252" clip-path="url(#clipPath2)" x2="252" y1="908"/>
            <line y2="37" fill="none" x1="268" clip-path="url(#clipPath2)" x2="268" y1="35"/>
            <line y2="906" fill="none" x1="268" clip-path="url(#clipPath2)" x2="268" y1="908"/>
            <line y2="37" fill="none" x1="283" clip-path="url(#clipPath2)" x2="283" y1="35"/>
            <line y2="906" fill="none" x1="283" clip-path="url(#clipPath2)" x2="283" y1="908"/>
            <line y2="37" fill="none" x1="299" clip-path="url(#clipPath2)" x2="299" y1="33"/>
            <line y2="906" fill="none" x1="299" clip-path="url(#clipPath2)" x2="299" y1="910"/>
            <text x="292" xml:space="preserve" font-size="10px" y="30" clip-path="url(#clipPath2)" stroke="none">0,1</text>
            <text x="292" xml:space="preserve" font-size="10px" y="921" clip-path="url(#clipPath2)" stroke="none">0,1</text>
            <line y2="37" fill="none" x1="315" clip-path="url(#clipPath2)" x2="315" y1="35"/>
            <line y2="906" fill="none" x1="315" clip-path="url(#clipPath2)" x2="315" y1="908"/>
            <line y2="37" fill="none" x1="331" clip-path="url(#clipPath2)" x2="331" y1="35"/>
            <line y2="906" fill="none" x1="331" clip-path="url(#clipPath2)" x2="331" y1="908"/>
            <line y2="37" fill="none" x1="347" clip-path="url(#clipPath2)" x2="347" y1="35"/>
            <line y2="906" fill="none" x1="347" clip-path="url(#clipPath2)" x2="347" y1="908"/>
            <line y2="37" fill="none" x1="363" clip-path="url(#clipPath2)" x2="363" y1="35"/>
            <line y2="906" fill="none" x1="363" clip-path="url(#clipPath2)" x2="363" y1="908"/>
            <line y2="37" fill="none" x1="379" clip-path="url(#clipPath2)" x2="379" y1="33"/>
            <line y2="906" fill="none" x1="379" clip-path="url(#clipPath2)" x2="379" y1="910"/>
            <text x="372" xml:space="preserve" font-size="10px" y="30" clip-path="url(#clipPath2)" stroke="none">0,2</text>
            <text x="372" xml:space="preserve" font-size="10px" y="921" clip-path="url(#clipPath2)" stroke="none">0,2</text>
            <line y2="37" fill="none" x1="394" clip-path="url(#clipPath2)" x2="394" y1="35"/>
            <line y2="906" fill="none" x1="394" clip-path="url(#clipPath2)" x2="394" y1="908"/>
            <line y2="37" fill="none" x1="410" clip-path="url(#clipPath2)" x2="410" y1="35"/>
            <line y2="906" fill="none" x1="410" clip-path="url(#clipPath2)" x2="410" y1="908"/>
            <line y2="37" fill="none" x1="426" clip-path="url(#clipPath2)" x2="426" y1="35"/>
            <line y2="906" fill="none" x1="426" clip-path="url(#clipPath2)" x2="426" y1="908"/>
            <line y2="37" fill="none" x1="442" clip-path="url(#clipPath2)" x2="442" y1="35"/>
            <line y2="906" fill="none" x1="442" clip-path="url(#clipPath2)" x2="442" y1="908"/>
            <line y2="37" fill="none" x1="458" clip-path="url(#clipPath2)" x2="458" y1="33"/>
            <line y2="906" fill="none" x1="458" clip-path="url(#clipPath2)" x2="458" y1="910"/>
            <text x="451" xml:space="preserve" font-size="10px" y="30" clip-path="url(#clipPath2)" stroke="none">0,3</text>
            <text x="451" xml:space="preserve" font-size="10px" y="921" clip-path="url(#clipPath2)" stroke="none">0,3</text>
            <line y2="37" fill="none" x1="474" clip-path="url(#clipPath2)" x2="474" y1="35"/>
            <line y2="906" fill="none" x1="474" clip-path="url(#clipPath2)" x2="474" y1="908"/>
            <line y2="37" fill="none" x1="489" clip-path="url(#clipPath2)" x2="489" y1="35"/>
            <line y2="906" fill="none" x1="489" clip-path="url(#clipPath2)" x2="489" y1="908"/>
            <line y2="37" fill="none" x1="505" clip-path="url(#clipPath2)" x2="505" y1="35"/>
            <line y2="906" fill="none" x1="505" clip-path="url(#clipPath2)" x2="505" y1="908"/>
            <line y2="37" fill="none" x1="521" clip-path="url(#clipPath2)" x2="521" y1="35"/>
            <line y2="906" fill="none" x1="521" clip-path="url(#clipPath2)" x2="521" y1="908"/>
            <line y2="37" fill="none" x1="537" clip-path="url(#clipPath2)" x2="537" y1="33"/>
            <line y2="906" fill="none" x1="537" clip-path="url(#clipPath2)" x2="537" y1="910"/>
            <text x="530" xml:space="preserve" font-size="10px" y="30" clip-path="url(#clipPath2)" stroke="none">0,4</text>
            <text x="530" xml:space="preserve" font-size="10px" y="921" clip-path="url(#clipPath2)" stroke="none">0,4</text>
            <line y2="37" fill="none" x1="553" clip-path="url(#clipPath2)" x2="553" y1="35"/>
            <line y2="906" fill="none" x1="553" clip-path="url(#clipPath2)" x2="553" y1="908"/>
            <line y2="37" fill="none" x1="569" clip-path="url(#clipPath2)" x2="569" y1="35"/>
            <line y2="906" fill="none" x1="569" clip-path="url(#clipPath2)" x2="569" y1="908"/>
            <line y2="37" fill="none" x1="585" clip-path="url(#clipPath2)" x2="585" y1="35"/>
            <line y2="906" fill="none" x1="585" clip-path="url(#clipPath2)" x2="585" y1="908"/>
            <line y2="37" fill="none" x1="600" clip-path="url(#clipPath2)" x2="600" y1="35"/>
            <line y2="906" fill="none" x1="600" clip-path="url(#clipPath2)" x2="600" y1="908"/>
            <line y2="37" fill="none" x1="616" clip-path="url(#clipPath2)" x2="616" y1="33"/>
            <line y2="906" fill="none" x1="616" clip-path="url(#clipPath2)" x2="616" y1="910"/>
            <text x="609" xml:space="preserve" font-size="10px" y="30" clip-path="url(#clipPath2)" stroke="none">0,5</text>
            <text x="609" xml:space="preserve" font-size="10px" y="921" clip-path="url(#clipPath2)" stroke="none">0,5</text>
            <line y2="37" fill="none" x1="632" clip-path="url(#clipPath2)" x2="632" y1="35"/>
            <line y2="906" fill="none" x1="632" clip-path="url(#clipPath2)" x2="632" y1="908"/>
            <line y2="37" fill="none" x1="648" clip-path="url(#clipPath2)" x2="648" y1="35"/>
            <line y2="906" fill="none" x1="648" clip-path="url(#clipPath2)" x2="648" y1="908"/>
            <line y2="37" fill="none" x1="664" clip-path="url(#clipPath2)" x2="664" y1="35"/>
            <line y2="906" fill="none" x1="664" clip-path="url(#clipPath2)" x2="664" y1="908"/>
            <line y2="37" fill="none" x1="680" clip-path="url(#clipPath2)" x2="680" y1="35"/>
            <line y2="906" fill="none" x1="680" clip-path="url(#clipPath2)" x2="680" y1="908"/>
            <line y2="37" fill="none" x1="696" clip-path="url(#clipPath2)" x2="696" y1="33"/>
            <line y2="906" fill="none" x1="696" clip-path="url(#clipPath2)" x2="696" y1="910"/>
            <text x="689" xml:space="preserve" font-size="10px" y="30" clip-path="url(#clipPath2)" stroke="none">0,6</text>
            <text x="689" xml:space="preserve" font-size="10px" y="921" clip-path="url(#clipPath2)" stroke="none">0,6</text>
            <line y2="37" fill="none" x1="711" clip-path="url(#clipPath2)" x2="711" y1="35"/>
            <line y2="906" fill="none" x1="711" clip-path="url(#clipPath2)" x2="711" y1="908"/>
            <line y2="37" fill="none" x1="727" clip-path="url(#clipPath2)" x2="727" y1="35"/>
            <line y2="906" fill="none" x1="727" clip-path="url(#clipPath2)" x2="727" y1="908"/>
            <line y2="37" fill="none" x1="743" clip-path="url(#clipPath2)" x2="743" y1="35"/>
            <line y2="906" fill="none" x1="743" clip-path="url(#clipPath2)" x2="743" y1="908"/>
            <line y2="37" fill="none" x1="759" clip-path="url(#clipPath2)" x2="759" y1="35"/>
            <line y2="906" fill="none" x1="759" clip-path="url(#clipPath2)" x2="759" y1="908"/>
            <line y2="37" fill="none" x1="775" clip-path="url(#clipPath2)" x2="775" y1="33"/>
            <line y2="906" fill="none" x1="775" clip-path="url(#clipPath2)" x2="775" y1="910"/>
            <text x="768" xml:space="preserve" font-size="10px" y="30" clip-path="url(#clipPath2)" stroke="none">0,7</text>
            <text x="768" xml:space="preserve" font-size="10px" y="921" clip-path="url(#clipPath2)" stroke="none">0,7</text>
            <line y2="37" fill="none" x1="791" clip-path="url(#clipPath2)" x2="791" y1="35"/>
            <line y2="906" fill="none" x1="791" clip-path="url(#clipPath2)" x2="791" y1="908"/>
            <line y2="37" fill="none" x1="806" clip-path="url(#clipPath2)" x2="806" y1="35"/>
            <line y2="906" fill="none" x1="806" clip-path="url(#clipPath2)" x2="806" y1="908"/>
            <line y2="37" fill="none" x1="822" clip-path="url(#clipPath2)" x2="822" y1="35"/>
            <line y2="906" fill="none" x1="822" clip-path="url(#clipPath2)" x2="822" y1="908"/>
            <line y2="37" fill="none" x1="838" clip-path="url(#clipPath2)" x2="838" y1="35"/>
            <line y2="906" fill="none" x1="838" clip-path="url(#clipPath2)" x2="838" y1="908"/>
            <line y2="37" fill="none" x1="854" clip-path="url(#clipPath2)" x2="854" y1="33"/>
            <line y2="906" fill="none" x1="854" clip-path="url(#clipPath2)" x2="854" y1="910"/>
            <text x="847" xml:space="preserve" font-size="10px" y="30" clip-path="url(#clipPath2)" stroke="none">0,8</text>
            <text x="847" xml:space="preserve" font-size="10px" y="921" clip-path="url(#clipPath2)" stroke="none">0,8</text>
            <line y2="37" fill="none" x1="870" clip-path="url(#clipPath2)" x2="870" y1="35"/>
            <line y2="906" fill="none" x1="870" clip-path="url(#clipPath2)" x2="870" y1="908"/>
            <line y2="37" fill="none" x1="886" clip-path="url(#clipPath2)" x2="886" y1="35"/>
            <line y2="906" fill="none" x1="886" clip-path="url(#clipPath2)" x2="886" y1="908"/>
            <line y2="37" fill="none" x1="902" clip-path="url(#clipPath2)" x2="902" y1="35"/>
            <line y2="906" fill="none" x1="902" clip-path="url(#clipPath2)" x2="902" y1="908"/>
            <line y2="37" fill="none" x1="917" clip-path="url(#clipPath2)" x2="917" y1="35"/>
            <line y2="906" fill="none" x1="917" clip-path="url(#clipPath2)" x2="917" y1="908"/>
            <line y2="37" fill="none" x1="933" clip-path="url(#clipPath2)" x2="933" y1="33"/>
            <line y2="906" fill="none" x1="933" clip-path="url(#clipPath2)" x2="933" y1="910"/>
            <text x="926" xml:space="preserve" font-size="10px" y="30" clip-path="url(#clipPath2)" stroke="none">0,9</text>
            <text x="926" xml:space="preserve" font-size="10px" y="921" clip-path="url(#clipPath2)" stroke="none">0,9</text>
            <line y2="37" fill="none" x1="949" clip-path="url(#clipPath2)" x2="949" y1="35"/>
            <line y2="906" fill="none" x1="949" clip-path="url(#clipPath2)" x2="949" y1="908"/>
            <line y2="37" fill="none" x1="965" clip-path="url(#clipPath2)" x2="965" y1="35"/>
            <line y2="906" fill="none" x1="965" clip-path="url(#clipPath2)" x2="965" y1="908"/>
            <line y2="37" fill="none" x1="981" clip-path="url(#clipPath2)" x2="981" y1="35"/>
            <line y2="906" fill="none" x1="981" clip-path="url(#clipPath2)" x2="981" y1="908"/>
            <line y2="37" fill="none" x1="997" clip-path="url(#clipPath2)" x2="997" y1="35"/>
            <line y2="906" fill="none" x1="997" clip-path="url(#clipPath2)" x2="997" y1="908"/>
            <line y2="37" fill="none" x1="1012" clip-path="url(#clipPath2)" x2="1012" y1="33"/>
            <line y2="906" fill="none" x1="1012" clip-path="url(#clipPath2)" x2="1012" y1="910"/>
            <text x="1010" xml:space="preserve" font-size="10px" y="30" clip-path="url(#clipPath2)" stroke="none">1</text>
            <text x="1010" xml:space="preserve" font-size="10px" y="921" clip-path="url(#clipPath2)" stroke="none">1</text>
            <line y2="37" fill="none" x1="1028" clip-path="url(#clipPath2)" x2="1028" y1="35"/>
            <line y2="906" fill="none" x1="1028" clip-path="url(#clipPath2)" x2="1028" y1="908"/>
            <line y2="37" fill="none" x1="1044" clip-path="url(#clipPath2)" x2="1044" y1="35"/>
            <line y2="906" fill="none" x1="1044" clip-path="url(#clipPath2)" x2="1044" y1="908"/>
            <line y2="37" fill="none" x1="1060" clip-path="url(#clipPath2)" x2="1060" y1="35"/>
            <line y2="906" fill="none" x1="1060" clip-path="url(#clipPath2)" x2="1060" y1="908"/>
            <line y2="37" fill="none" x1="1076" clip-path="url(#clipPath2)" x2="1076" y1="35"/>
            <line y2="906" fill="none" x1="1076" clip-path="url(#clipPath2)" x2="1076" y1="908"/>
            <line y2="37" fill="none" x1="1092" clip-path="url(#clipPath2)" x2="1092" y1="33"/>
            <line y2="906" fill="none" x1="1092" clip-path="url(#clipPath2)" x2="1092" y1="910"/>
            <text x="1085" xml:space="preserve" font-size="10px" y="30" clip-path="url(#clipPath2)" stroke="none">1,1</text>
            <text x="1085" xml:space="preserve" font-size="10px" y="921" clip-path="url(#clipPath2)" stroke="none">1,1</text>
            <line y2="37" fill="none" x1="1108" clip-path="url(#clipPath2)" x2="1108" y1="35"/>
            <line y2="906" fill="none" x1="1108" clip-path="url(#clipPath2)" x2="1108" y1="908"/>
            <line y2="37" fill="none" x1="1123" clip-path="url(#clipPath2)" x2="1123" y1="35"/>
            <line y2="906" fill="none" x1="1123" clip-path="url(#clipPath2)" x2="1123" y1="908"/>
            <line y2="37" fill="none" x1="1139" clip-path="url(#clipPath2)" x2="1139" y1="35"/>
            <line y2="906" fill="none" x1="1139" clip-path="url(#clipPath2)" x2="1139" y1="908"/>
            <line y2="37" fill="none" x1="1155" clip-path="url(#clipPath2)" x2="1155" y1="35"/>
            <line y2="906" fill="none" x1="1155" clip-path="url(#clipPath2)" x2="1155" y1="908"/>
            <line y2="37" fill="none" x1="1171" clip-path="url(#clipPath2)" x2="1171" y1="33"/>
            <line y2="906" fill="none" x1="1171" clip-path="url(#clipPath2)" x2="1171" y1="910"/>
            <text x="1164" xml:space="preserve" font-size="10px" y="30" clip-path="url(#clipPath2)" stroke="none">1,2</text>
            <text x="1164" xml:space="preserve" font-size="10px" y="921" clip-path="url(#clipPath2)" stroke="none">1,2</text>
            <line y2="37" fill="none" x1="1187" clip-path="url(#clipPath2)" x2="1187" y1="35"/>
            <line y2="906" fill="none" x1="1187" clip-path="url(#clipPath2)" x2="1187" y1="908"/>
            <line y2="37" fill="none" x1="1203" clip-path="url(#clipPath2)" x2="1203" y1="35"/>
            <line y2="906" fill="none" x1="1203" clip-path="url(#clipPath2)" x2="1203" y1="908"/>
            <line y2="37" fill="none" x1="1219" clip-path="url(#clipPath2)" x2="1219" y1="35"/>
            <line y2="906" fill="none" x1="1219" clip-path="url(#clipPath2)" x2="1219" y1="908"/>
            <line y2="37" fill="none" x1="1234" clip-path="url(#clipPath2)" x2="1234" y1="35"/>
            <line y2="906" fill="none" x1="1234" clip-path="url(#clipPath2)" x2="1234" y1="908"/>
            <line y2="37" fill="none" x1="1250" clip-path="url(#clipPath2)" x2="1250" y1="33"/>
            <line y2="906" fill="none" x1="1250" clip-path="url(#clipPath2)" x2="1250" y1="910"/>
            <text x="1243" xml:space="preserve" font-size="10px" y="30" clip-path="url(#clipPath2)" stroke="none">1,3</text>
            <text x="1243" xml:space="preserve" font-size="10px" y="921" clip-path="url(#clipPath2)" stroke="none">1,3</text>
            <line y2="37" fill="none" x1="1266" clip-path="url(#clipPath2)" x2="1266" y1="35"/>
            <line y2="906" fill="none" x1="1266" clip-path="url(#clipPath2)" x2="1266" y1="908"/>
            <line y2="37" fill="none" x1="1282" clip-path="url(#clipPath2)" x2="1282" y1="35"/>
            <line y2="906" fill="none" x1="1282" clip-path="url(#clipPath2)" x2="1282" y1="908"/>
            <line y2="37" fill="none" x1="1298" clip-path="url(#clipPath2)" x2="1298" y1="35"/>
            <line y2="906" fill="none" x1="1298" clip-path="url(#clipPath2)" x2="1298" y1="908"/>
            <line y2="37" fill="none" x1="1314" clip-path="url(#clipPath2)" x2="1314" y1="35"/>
            <line y2="906" fill="none" x1="1314" clip-path="url(#clipPath2)" x2="1314" y1="908"/>
            <line y2="37" fill="none" x1="1329" clip-path="url(#clipPath2)" x2="1329" y1="33"/>
            <line y2="906" fill="none" x1="1329" clip-path="url(#clipPath2)" x2="1329" y1="910"/>
            <text x="1322" xml:space="preserve" font-size="10px" y="30" clip-path="url(#clipPath2)" stroke="none">1,4</text>
            <text x="1322" xml:space="preserve" font-size="10px" y="921" clip-path="url(#clipPath2)" stroke="none">1,4</text>
            <line y2="37" fill="none" x1="1345" clip-path="url(#clipPath2)" x2="1345" y1="35"/>
            <line y2="906" fill="none" x1="1345" clip-path="url(#clipPath2)" x2="1345" y1="908"/>
            <line y2="37" fill="none" x1="1361" clip-path="url(#clipPath2)" x2="1361" y1="35"/>
            <line y2="906" fill="none" x1="1361" clip-path="url(#clipPath2)" x2="1361" y1="908"/>
            <line y2="37" fill="none" x1="1377" clip-path="url(#clipPath2)" x2="1377" y1="35"/>
            <line y2="906" fill="none" x1="1377" clip-path="url(#clipPath2)" x2="1377" y1="908"/>
            <line y2="37" fill="none" x1="1393" clip-path="url(#clipPath2)" x2="1393" y1="35"/>
            <line y2="906" fill="none" x1="1393" clip-path="url(#clipPath2)" x2="1393" y1="908"/>
            <line y2="37" fill="none" x1="1409" clip-path="url(#clipPath2)" x2="1409" y1="33"/>
            <line y2="906" fill="none" x1="1409" clip-path="url(#clipPath2)" x2="1409" y1="910"/>
            <text x="1402" xml:space="preserve" font-size="10px" y="30" clip-path="url(#clipPath2)" stroke="none">1,5</text>
            <text x="1402" xml:space="preserve" font-size="10px" y="921" clip-path="url(#clipPath2)" stroke="none">1,5</text>
            <line y2="37" fill="none" x1="1425" clip-path="url(#clipPath2)" x2="1425" y1="35"/>
            <line y2="906" fill="none" x1="1425" clip-path="url(#clipPath2)" x2="1425" y1="908"/>
            <line y2="37" fill="none" x1="1440" clip-path="url(#clipPath2)" x2="1440" y1="35"/>
            <line y2="906" fill="none" x1="1440" clip-path="url(#clipPath2)" x2="1440" y1="908"/>
            <line y2="37" fill="none" x1="1456" clip-path="url(#clipPath2)" x2="1456" y1="35"/>
            <line y2="906" fill="none" x1="1456" clip-path="url(#clipPath2)" x2="1456" y1="908"/>
            <line y2="37" fill="none" x1="1472" clip-path="url(#clipPath2)" x2="1472" y1="35"/>
            <line y2="906" fill="none" x1="1472" clip-path="url(#clipPath2)" x2="1472" y1="908"/>
            <line y2="37" fill="none" x1="1488" clip-path="url(#clipPath2)" x2="1488" y1="33"/>
            <line y2="906" fill="none" x1="1488" clip-path="url(#clipPath2)" x2="1488" y1="910"/>
            <text x="1481" xml:space="preserve" font-size="10px" y="30" clip-path="url(#clipPath2)" stroke="none">1,6</text>
            <text x="1481" xml:space="preserve" font-size="10px" y="921" clip-path="url(#clipPath2)" stroke="none">1,6</text>
            <line y2="37" fill="none" x1="1504" clip-path="url(#clipPath2)" x2="1504" y1="35"/>
            <line y2="906" fill="none" x1="1504" clip-path="url(#clipPath2)" x2="1504" y1="908"/>
            <line y2="37" fill="none" x1="1520" clip-path="url(#clipPath2)" x2="1520" y1="35"/>
            <line y2="906" fill="none" x1="1520" clip-path="url(#clipPath2)" x2="1520" y1="908"/>
            <line y2="37" fill="none" x1="1536" clip-path="url(#clipPath2)" x2="1536" y1="35"/>
            <line y2="906" fill="none" x1="1536" clip-path="url(#clipPath2)" x2="1536" y1="908"/>
            <line y2="37" fill="none" x1="1551" clip-path="url(#clipPath2)" x2="1551" y1="35"/>
            <line y2="906" fill="none" x1="1551" clip-path="url(#clipPath2)" x2="1551" y1="908"/>
            <line y2="37" fill="none" x1="1567" clip-path="url(#clipPath2)" x2="1567" y1="33"/>
            <line y2="906" fill="none" x1="1567" clip-path="url(#clipPath2)" x2="1567" y1="910"/>
            <text x="1560" xml:space="preserve" font-size="10px" y="30" clip-path="url(#clipPath2)" stroke="none">1,7</text>
            <text x="1560" xml:space="preserve" font-size="10px" y="921" clip-path="url(#clipPath2)" stroke="none">1,7</text>
            <line y2="37" fill="none" x1="1583" clip-path="url(#clipPath2)" x2="1583" y1="35"/>
            <line y2="906" fill="none" x1="1583" clip-path="url(#clipPath2)" x2="1583" y1="908"/>
            <line y2="37" fill="none" x1="1599" clip-path="url(#clipPath2)" x2="1599" y1="35"/>
            <line y2="906" fill="none" x1="1599" clip-path="url(#clipPath2)" x2="1599" y1="908"/>
            <line y2="37" fill="none" x1="1615" clip-path="url(#clipPath2)" x2="1615" y1="35"/>
            <line y2="906" fill="none" x1="1615" clip-path="url(#clipPath2)" x2="1615" y1="908"/>
            <line y2="37" fill="none" x1="1631" clip-path="url(#clipPath2)" x2="1631" y1="35"/>
            <line y2="906" fill="none" x1="1631" clip-path="url(#clipPath2)" x2="1631" y1="908"/>
            <line y2="37" fill="none" x1="1646" clip-path="url(#clipPath2)" x2="1646" y1="33"/>
            <line y2="906" fill="none" x1="1646" clip-path="url(#clipPath2)" x2="1646" y1="910"/>
            <text x="1639" xml:space="preserve" font-size="10px" y="30" clip-path="url(#clipPath2)" stroke="none">1,8</text>
            <text x="1639" xml:space="preserve" font-size="10px" y="921" clip-path="url(#clipPath2)" stroke="none">1,8</text>
            <line y2="37" fill="none" x1="1662" clip-path="url(#clipPath2)" x2="1662" y1="35"/>
            <line y2="906" fill="none" x1="1662" clip-path="url(#clipPath2)" x2="1662" y1="908"/>
            <line y2="37" fill="none" x1="1678" clip-path="url(#clipPath2)" x2="1678" y1="35"/>
            <line y2="906" fill="none" x1="1678" clip-path="url(#clipPath2)" x2="1678" y1="908"/>
            <line y2="37" fill="none" x1="1694" clip-path="url(#clipPath2)" x2="1694" y1="35"/>
            <line y2="906" fill="none" x1="1694" clip-path="url(#clipPath2)" x2="1694" y1="908"/>
            <line y2="37" fill="none" x1="1710" clip-path="url(#clipPath2)" x2="1710" y1="35"/>
            <line y2="906" fill="none" x1="1710" clip-path="url(#clipPath2)" x2="1710" y1="908"/>
            <line y2="37" fill="none" x1="1726" clip-path="url(#clipPath2)" x2="1726" y1="33"/>
            <line y2="906" fill="none" x1="1726" clip-path="url(#clipPath2)" x2="1726" y1="910"/>
            <text x="1719" xml:space="preserve" font-size="10px" y="30" clip-path="url(#clipPath2)" stroke="none">1,9</text>
            <text x="1719" xml:space="preserve" font-size="10px" y="921" clip-path="url(#clipPath2)" stroke="none">1,9</text>
            <line y2="37" fill="none" x1="1742" clip-path="url(#clipPath2)" x2="1742" y1="35"/>
            <line y2="906" fill="none" x1="1742" clip-path="url(#clipPath2)" x2="1742" y1="908"/>
            <line y2="37" fill="none" x1="1757" clip-path="url(#clipPath2)" x2="1757" y1="35"/>
            <line y2="906" fill="none" x1="1757" clip-path="url(#clipPath2)" x2="1757" y1="908"/>
            <line y2="37" fill="none" x1="1773" clip-path="url(#clipPath2)" x2="1773" y1="35"/>
            <line y2="906" fill="none" x1="1773" clip-path="url(#clipPath2)" x2="1773" y1="908"/>
            <line y2="37" fill="none" x1="1789" clip-path="url(#clipPath2)" x2="1789" y1="35"/>
            <line y2="906" fill="none" x1="1789" clip-path="url(#clipPath2)" x2="1789" y1="908"/>
            <line y2="37" fill="none" x1="1805" clip-path="url(#clipPath2)" x2="1805" y1="33"/>
            <line y2="906" fill="none" x1="1805" clip-path="url(#clipPath2)" x2="1805" y1="910"/>
            <text x="1803" xml:space="preserve" font-size="10px" y="30" clip-path="url(#clipPath2)" stroke="none">2</text>
            <text x="1803" xml:space="preserve" font-size="10px" y="921" clip-path="url(#clipPath2)" stroke="none">2</text>
            <line y2="37" fill="none" x1="1821" clip-path="url(#clipPath2)" x2="1821" y1="35"/>
            <line y2="906" fill="none" x1="1821" clip-path="url(#clipPath2)" x2="1821" y1="908"/>
            <line y2="37" fill="none" x1="1837" clip-path="url(#clipPath2)" x2="1837" y1="35"/>
            <line y2="906" fill="none" x1="1837" clip-path="url(#clipPath2)" x2="1837" y1="908"/>
            <line y2="37" fill="none" x1="1853" clip-path="url(#clipPath2)" x2="1853" y1="35"/>
            <line y2="906" fill="none" x1="1853" clip-path="url(#clipPath2)" x2="1853" y1="908"/>
            <line y2="37" fill="none" x1="1868" clip-path="url(#clipPath2)" x2="1868" y1="35"/>
            <line y2="906" fill="none" x1="1868" clip-path="url(#clipPath2)" x2="1868" y1="908"/>
            <line y2="37" fill="none" x1="1884" clip-path="url(#clipPath2)" x2="1884" y1="33"/>
            <line y2="906" fill="none" x1="1884" clip-path="url(#clipPath2)" x2="1884" y1="910"/>
            <text x="1877" xml:space="preserve" font-size="10px" y="30" clip-path="url(#clipPath2)" stroke="none">2,1</text>
            <text x="1877" xml:space="preserve" font-size="10px" y="921" clip-path="url(#clipPath2)" stroke="none">2,1</text>
            <line y2="37" fill="none" x1="1900" clip-path="url(#clipPath2)" x2="1900" y1="35"/>
            <line y2="906" fill="none" x1="1900" clip-path="url(#clipPath2)" x2="1900" y1="908"/>
            <line y2="37" fill="none" x1="1916" clip-path="url(#clipPath2)" x2="1916" y1="35"/>
            <line y2="906" fill="none" x1="1916" clip-path="url(#clipPath2)" x2="1916" y1="908"/>
            <line y2="37" fill="none" x1="1932" clip-path="url(#clipPath2)" x2="1932" y1="35"/>
            <line y2="906" fill="none" x1="1932" clip-path="url(#clipPath2)" x2="1932" y1="908"/>
            <line y2="37" fill="none" x1="1948" clip-path="url(#clipPath2)" x2="1948" y1="35"/>
            <line y2="906" fill="none" x1="1948" clip-path="url(#clipPath2)" x2="1948" y1="908"/>
            <line y2="37" fill="none" x1="1964" clip-path="url(#clipPath2)" x2="1964" y1="33"/>
            <line y2="906" fill="none" x1="1964" clip-path="url(#clipPath2)" x2="1964" y1="910"/>
            <text x="1957" xml:space="preserve" font-size="10px" y="30" clip-path="url(#clipPath2)" stroke="none">2,2</text>
            <text x="1957" xml:space="preserve" font-size="10px" y="921" clip-path="url(#clipPath2)" stroke="none">2,2</text>
            <line y2="904" fill="none" x1="60" clip-path="url(#clipPath2)" x2="60" y1="39"/>
            <line y2="904" fill="none" x1="1966" clip-path="url(#clipPath2)" x2="1966" y1="39"/>
            <line y2="904" fill="none" x1="56" clip-path="url(#clipPath2)" x2="60" y1="904"/>
            <line y2="904" fill="none" x1="1970" clip-path="url(#clipPath2)" x2="1966" y1="904"/>
            <text x="48" xml:space="preserve" font-size="10px" y="908" clip-path="url(#clipPath2)" stroke="none">0</text>
            <text x="1973" xml:space="preserve" font-size="10px" y="908" clip-path="url(#clipPath2)" stroke="none">0</text>
            <line y2="871" fill="none" x1="58" clip-path="url(#clipPath2)" x2="60" y1="871"/>
            <line y2="871" fill="none" x1="1968" clip-path="url(#clipPath2)" x2="1966" y1="871"/>
            <line y2="839" fill="none" x1="56" clip-path="url(#clipPath2)" x2="60" y1="839"/>
            <line y2="839" fill="none" x1="1970" clip-path="url(#clipPath2)" x2="1966" y1="839"/>
            <text x="13" xml:space="preserve" font-size="10px" y="843" clip-path="url(#clipPath2)" stroke="none">200 000</text>
            <text x="1973" xml:space="preserve" font-size="10px" y="843" clip-path="url(#clipPath2)" stroke="none">200 000</text>
            <line y2="806" fill="none" x1="58" clip-path="url(#clipPath2)" x2="60" y1="806"/>
            <line y2="806" fill="none" x1="1968" clip-path="url(#clipPath2)" x2="1966" y1="806"/>
            <line y2="774" fill="none" x1="56" clip-path="url(#clipPath2)" x2="60" y1="774"/>
            <line y2="774" fill="none" x1="1970" clip-path="url(#clipPath2)" x2="1966" y1="774"/>
            <text x="13" xml:space="preserve" font-size="10px" y="778" clip-path="url(#clipPath2)" stroke="none">400 000</text>
            <text x="1973" xml:space="preserve" font-size="10px" y="778" clip-path="url(#clipPath2)" stroke="none">400 000</text>
            <line y2="741" fill="none" x1="58" clip-path="url(#clipPath2)" x2="60" y1="741"/>
            <line y2="741" fill="none" x1="1968" clip-path="url(#clipPath2)" x2="1966" y1="741"/>
            <line y2="709" fill="none" x1="56" clip-path="url(#clipPath2)" x2="60" y1="709"/>
            <line y2="709" fill="none" x1="1970" clip-path="url(#clipPath2)" x2="1966" y1="709"/>
            <text x="13" xml:space="preserve" font-size="10px" y="713" clip-path="url(#clipPath2)" stroke="none">600 000</text>
            <text x="1973" xml:space="preserve" font-size="10px" y="713" clip-path="url(#clipPath2)" stroke="none">600 000</text>
            <line y2="676" fill="none" x1="58" clip-path="url(#clipPath2)" x2="60" y1="676"/>
            <line y2="676" fill="none" x1="1968" clip-path="url(#clipPath2)" x2="1966" y1="676"/>
            <line y2="644" fill="none" x1="56" clip-path="url(#clipPath2)" x2="60" y1="644"/>
            <line y2="644" fill="none" x1="1970" clip-path="url(#clipPath2)" x2="1966" y1="644"/>
            <text x="13" xml:space="preserve" font-size="10px" y="648" clip-path="url(#clipPath2)" stroke="none">800 000</text>
            <text x="1973" xml:space="preserve" font-size="10px" y="648" clip-path="url(#clipPath2)" stroke="none">800 000</text>
            <line y2="612" fill="none" x1="58" clip-path="url(#clipPath2)" x2="60" y1="612"/>
            <line y2="612" fill="none" x1="1968" clip-path="url(#clipPath2)" x2="1966" y1="612"/>
            <line y2="579" fill="none" x1="56" clip-path="url(#clipPath2)" x2="60" y1="579"/>
            <line y2="579" fill="none" x1="1970" clip-path="url(#clipPath2)" x2="1966" y1="579"/>
            <text x="4" xml:space="preserve" font-size="10px" y="583" clip-path="url(#clipPath2)" stroke="none">1 000 000</text>
            <text x="1973" xml:space="preserve" font-size="10px" y="583" clip-path="url(#clipPath2)" stroke="none">1 000 000</text>
            <line y2="547" fill="none" x1="58" clip-path="url(#clipPath2)" x2="60" y1="547"/>
            <line y2="547" fill="none" x1="1968" clip-path="url(#clipPath2)" x2="1966" y1="547"/>
            <line y2="514" fill="none" x1="56" clip-path="url(#clipPath2)" x2="60" y1="514"/>
            <line y2="514" fill="none" x1="1970" clip-path="url(#clipPath2)" x2="1966" y1="514"/>
            <text x="4" xml:space="preserve" font-size="10px" y="518" clip-path="url(#clipPath2)" stroke="none">1 200 000</text>
            <text x="1973" xml:space="preserve" font-size="10px" y="518" clip-path="url(#clipPath2)" stroke="none">1 200 000</text>
            <line y2="482" fill="none" x1="58" clip-path="url(#clipPath2)" x2="60" y1="482"/>
            <line y2="482" fill="none" x1="1968" clip-path="url(#clipPath2)" x2="1966" y1="482"/>
            <line y2="449" fill="none" x1="56" clip-path="url(#clipPath2)" x2="60" y1="449"/>
            <line y2="449" fill="none" x1="1970" clip-path="url(#clipPath2)" x2="1966" y1="449"/>
            <text x="4" xml:space="preserve" font-size="10px" y="453" clip-path="url(#clipPath2)" stroke="none">1 400 000</text>
            <text x="1973" xml:space="preserve" font-size="10px" y="453" clip-path="url(#clipPath2)" stroke="none">1 400 000</text>
            <line y2="417" fill="none" x1="58" clip-path="url(#clipPath2)" x2="60" y1="417"/>
            <line y2="417" fill="none" x1="1968" clip-path="url(#clipPath2)" x2="1966" y1="417"/>
            <line y2="384" fill="none" x1="56" clip-path="url(#clipPath2)" x2="60" y1="384"/>
            <line y2="384" fill="none" x1="1970" clip-path="url(#clipPath2)" x2="1966" y1="384"/>
            <text x="4" xml:space="preserve" font-size="10px" y="388" clip-path="url(#clipPath2)" stroke="none">1 600 000</text>
            <text x="1973" xml:space="preserve" font-size="10px" y="388" clip-path="url(#clipPath2)" stroke="none">1 600 000</text>
            <line y2="352" fill="none" x1="58" clip-path="url(#clipPath2)" x2="60" y1="352"/>
            <line y2="352" fill="none" x1="1968" clip-path="url(#clipPath2)" x2="1966" y1="352"/>
            <line y2="320" fill="none" x1="56" clip-path="url(#clipPath2)" x2="60" y1="320"/>
            <line y2="320" fill="none" x1="1970" clip-path="url(#clipPath2)" x2="1966" y1="320"/>
            <text x="4" xml:space="preserve" font-size="10px" y="324" clip-path="url(#clipPath2)" stroke="none">1 800 000</text>
            <text x="1973" xml:space="preserve" font-size="10px" y="324" clip-path="url(#clipPath2)" stroke="none">1 800 000</text>
            <line y2="287" fill="none" x1="58" clip-path="url(#clipPath2)" x2="60" y1="287"/>
            <line y2="287" fill="none" x1="1968" clip-path="url(#clipPath2)" x2="1966" y1="287"/>
            <line y2="255" fill="none" x1="56" clip-path="url(#clipPath2)" x2="60" y1="255"/>
            <line y2="255" fill="none" x1="1970" clip-path="url(#clipPath2)" x2="1966" y1="255"/>
            <text x="4" xml:space="preserve" font-size="10px" y="259" clip-path="url(#clipPath2)" stroke="none">2 000 000</text>
            <text x="1973" xml:space="preserve" font-size="10px" y="259" clip-path="url(#clipPath2)" stroke="none">2 000 000</text>
            <line y2="222" fill="none" x1="58" clip-path="url(#clipPath2)" x2="60" y1="222"/>
            <line y2="222" fill="none" x1="1968" clip-path="url(#clipPath2)" x2="1966" y1="222"/>
            <line y2="190" fill="none" x1="56" clip-path="url(#clipPath2)" x2="60" y1="190"/>
            <line y2="190" fill="none" x1="1970" clip-path="url(#clipPath2)" x2="1966" y1="190"/>
            <text x="4" xml:space="preserve" font-size="10px" y="194" clip-path="url(#clipPath2)" stroke="none">2 200 000</text>
            <text x="1973" xml:space="preserve" font-size="10px" y="194" clip-path="url(#clipPath2)" stroke="none">2 200 000</text>
            <line y2="157" fill="none" x1="58" clip-path="url(#clipPath2)" x2="60" y1="157"/>
            <line y2="157" fill="none" x1="1968" clip-path="url(#clipPath2)" x2="1966" y1="157"/>
            <line y2="125" fill="none" x1="56" clip-path="url(#clipPath2)" x2="60" y1="125"/>
            <line y2="125" fill="none" x1="1970" clip-path="url(#clipPath2)" x2="1966" y1="125"/>
            <text x="4" xml:space="preserve" font-size="10px" y="129" clip-path="url(#clipPath2)" stroke="none">2 400 000</text>
            <text x="1973" xml:space="preserve" font-size="10px" y="129" clip-path="url(#clipPath2)" stroke="none">2 400 000</text>
            <line y2="93" fill="none" x1="58" clip-path="url(#clipPath2)" x2="60" y1="93"/>
            <line y2="93" fill="none" x1="1968" clip-path="url(#clipPath2)" x2="1966" y1="93"/>
            <line y2="60" fill="none" x1="56" clip-path="url(#clipPath2)" x2="60" y1="60"/>
            <line y2="60" fill="none" x1="1970" clip-path="url(#clipPath2)" x2="1966" y1="60"/>
            <text x="4" xml:space="preserve" font-size="10px" y="64" clip-path="url(#clipPath2)" stroke="none">2 600 000</text>
            <text x="1973" xml:space="preserve" font-size="10px" y="64" clip-path="url(#clipPath2)" stroke="none">2 600 000</text>
        </g>
    </g>
</svg>
